# xmcd
#
# Track frame offsets:
#	150
#	12477
#	25675
#	36940
#	48842
#	62175
#	74592
#	88935
#	100502
#	111932
#	122092
#	135297
#	149315
#	162127
#	172840
#	184180
#	198397
#	210667
#
# Disc length: 2993 seconds
#
# Revision: 0
# Processed by: cddbd v1.5.2PL0 Copyright (c) Steve Scherf et al.
# Submitted via: EZCDAudioConverter 8.3.2.1
#
DISCID=f80baf12
DTITLE=Sam Taylor - Saxophone 6
DYEAR=1900
DGENRE=
TTITLE0=The Return of the Flesh
TTITLE1=The Heat From Another Sun
TTITLE2=Fast Forward
TTITLE3=The Iron and the Maiden
TTITLE4=Proud to Be Dead
TTITLE5=Snowballing Blood
TTITLE6=Wilder Than Fire
TTITLE7=Feeding Fatal Fairies
TTITLE8=Lightning Strikes Thrice
TTITLE9=Domination of the Sub-queen
TTITLE10=Speeding the Ways
TTITLE11=Entering My Yesterdays
TTITLE12=Mary Bloody Mary
TTITLE13=Metallic Warlust
TTITLE14=Under the Blade
TTITLE15=Walking the Moons of Mars
TTITLE16=In Chains and Leather
TTITLE17=Thorns of a Black Rose
EXTD=
EXTT0=
EXTT1=
EXTT2=
EXTT3=
EXTT4=
EXTT5=
EXTT6=
EXTT7=
EXTT8=
EXTT9=
EXTT10=
EXTT11=
EXTT12=
EXTT13=
EXTT14=
EXTT15=
EXTT16=
EXTT17=
PLAYORDER=
